<?xml version="1.0" standalone="no"?>
<!DOCTYPE svg PUBLIC "-//W3C//DTD SVG 20010904//EN"
 "http://www.w3.org/TR/2001/REC-SVG-20010904/DTD/svg10.dtd">
<svg version="1.0" xmlns="http://www.w3.org/2000/svg"
 width="225.000000pt" height="225.000000pt" viewBox="0 0 225.000000 225.000000"
 preserveAspectRatio="xMidYMid meet">

<g transform="translate(0.000000,225.000000) scale(0.100000,-0.100000)"
fill="#000000" stroke="none">
<path d="M1104 1886 c-26 -41 -35 -97 -19 -128 11 -23 11 -29 -1 -39 -11 -9
-14 -56 -14 -240 l0 -229 -125 0 -125 0 0 178 c0 144 -3 182 -15 200 -12 16
-13 27 -5 41 5 11 10 31 10 45 0 27 -39 116 -51 116 -10 0 -49 -95 -49 -120 0
-12 5 -30 10 -41 8 -14 7 -25 -5 -41 -12 -18 -15 -56 -15 -199 l0 -177 -110
-4 c-104 -3 -111 -4 -137 -31 l-28 -27 -3 -370 -3 -370 -54 0 c-46 0 -56 -4
-74 -27 -23 -28 -20 -59 8 -80 12 -10 201 -12 836 -10 l819 2 16 27 c13 25 13
31 0 55 -14 25 -22 28 -78 31 l-62 3 0 360 c0 398 -1 407 -61 428 -18 6 -74
11 -125 11 l-94 0 0 178 c0 144 -3 182 -15 200 -12 16 -13 27 -5 41 5 11 10
29 10 41 0 25 -39 120 -49 120 -12 0 -51 -89 -51 -116 0 -14 5 -34 10 -45 8
-14 7 -25 -5 -41 -12 -18 -15 -56 -15 -200 l0 -178 -125 0 -125 0 0 229 c0
185 -3 231 -14 240 -12 10 -12 16 -1 38 15 28 11 71 -11 115 -20 39 -31 42
-50 14z m44 -94 c-4 -43 -30 -55 -48 -22 -10 18 -8 31 5 68 l18 45 14 -27 c8
-15 13 -44 11 -64z m-370 -27 c26 -57 2 -124 -33 -95 -18 15 -19 45 -4 89 13
38 22 39 37 6z m731 -6 c15 -44 14 -74 -4 -89 -20 -16 -45 3 -45 35 0 29 20
85 30 85 4 0 13 -14 19 -31z m-361 -51 c9 -9 12 -75 12 -235 l0 -223 -35 0
-35 0 0 219 c0 121 3 226 6 235 7 19 35 21 52 4z m-364 -90 c13 -18 16 -55 16
-195 l0 -173 -40 0 -40 0 0 177 c0 150 2 179 17 195 21 23 29 23 47 -4z m730
0 c13 -18 16 -55 16 -195 l0 -173 -40 0 -40 0 0 177 c0 150 2 179 17 195 21
23 29 23 47 -4z m255 -403 c16 -8 31 -22 35 -30 3 -9 6 -71 6 -138 l0 -121
-35 38 c-44 48 -75 47 -90 -5 -5 -20 -16 -44 -24 -53 -21 -25 -66 -20 -104 13
-69 61 -124 47 -179 -44 -51 -85 -107 -86 -149 -3 -41 82 -58 99 -92 96 -24
-2 -40 -15 -69 -53 -46 -61 -73 -65 -104 -15 -46 71 -59 83 -82 76 -13 -4 -34
-25 -48 -47 -13 -21 -31 -39 -39 -39 -8 0 -26 16 -41 35 -19 25 -34 35 -55 35
-20 0 -35 -10 -55 -35 -17 -23 -35 -35 -50 -35 -26 0 -33 12 -53 87 -12 45
-35 59 -77 49 -24 -6 -24 -6 -24 70 0 70 2 78 29 105 l29 29 622 0 c525 0 625
-2 649 -15z m-1260 -219 c6 -7 15 -34 20 -59 17 -90 56 -101 127 -35 l46 43
38 -44 c47 -54 75 -52 109 9 30 55 53 52 86 -9 29 -53 62 -77 91 -67 11 3 32
26 48 51 51 81 79 81 121 2 34 -64 53 -87 82 -98 33 -12 81 8 98 42 9 16 29
45 46 64 39 44 73 46 124 5 68 -54 144 -34 159 41 7 38 22 37 68 -8 l38 -37 0
-223 0 -223 -685 0 -685 0 0 274 c0 253 1 275 18 279 31 8 39 7 51 -7z m1435
-582 c20 -19 20 -29 0 -48 -14 -14 -102 -16 -819 -16 -717 0 -805 2 -819 16
-19 18 -19 20 -6 45 10 19 30 19 820 19 722 0 810 -2 824 -16z"/>
</g>
</svg>
