<?xml version="1.0" standalone="no"?>
<!DOCTYPE svg PUBLIC "-//W3C//DTD SVG 20010904//EN"
 "http://www.w3.org/TR/2001/REC-SVG-20010904/DTD/svg10.dtd">
<svg version="1.0" xmlns="http://www.w3.org/2000/svg"
 width="294.000000pt" height="333.000000pt" viewBox="0 0 294.000000 333.000000"
 preserveAspectRatio="xMidYMid meet">

<g transform="translate(0.000000,333.000000) scale(0.100000,-0.100000)"
fill="#000000" stroke="none">
<path d="M1360 3055 c-407 -56 -735 -313 -870 -684 -35 -96 -70 -279 -70 -367
0 -312 251 -818 713 -1439 245 -330 280 -365 363 -365 80 0 121 40 320 310
468 634 705 1078 746 1397 31 239 -51 529 -208 735 -184 241 -431 378 -754
418 -101 12 -117 12 -240 -5z m207 -545 c52 -31 58 -51 63 -220 l5 -155 157
-5 c138 -4 160 -7 185 -26 81 -60 79 -177 -4 -231 -22 -15 -57 -19 -183 -23
l-155 -5 -5 -155 c-5 -169 -11 -189 -63 -220 -61 -38 -151 -17 -187 42 -18 29
-20 50 -20 185 l0 151 -157 4 c-146 3 -160 5 -191 26 -17 13 -37 33 -43 44
-17 31 -14 114 5 143 35 53 58 60 228 63 l158 4 0 151 c0 135 2 156 20 185 36
59 126 80 187 42z"/>
</g>
</svg>
